<svg width="129" height="27" viewBox="0 0 129 27" fill="none" xmlns="http://www.w3.org/2000/svg">
<g opacity="0.2">
<path fill-rule="evenodd" clip-rule="evenodd" d="M116.914 23.7297C118.102 24.9178 119.643 25.4958 121.506 25.4958C123.368 25.4958 124.878 24.9178 126.098 23.7297C127.286 22.5416 127.896 21.0324 127.896 19.1699V8.70183C127.896 6.87152 127.286 5.36231 126.098 4.17421C124.878 2.98612 123.368 2.37601 121.506 2.37601C119.643 2.37601 118.102 2.98612 116.914 4.17421C115.694 5.36231 115.116 6.87152 115.116 8.70183V19.1699C115.116 21.0324 115.694 22.5416 116.914 23.7297ZM116.35 24.301C117.71 25.659 119.465 26.2985 121.506 26.2985C123.555 26.2985 125.272 25.654 126.658 24.3049L126.665 24.2973C128.016 22.9467 128.699 21.2277 128.699 19.1699V8.70183C128.699 6.67404 128.015 4.95579 126.665 3.60652L126.658 3.59905C125.279 2.257 123.566 1.57324 121.506 1.57324C119.454 1.57324 117.703 2.25182 116.35 3.6028C114.958 4.96062 114.313 6.68588 114.313 8.70183V19.1699C114.313 21.2157 114.956 22.9418 116.35 24.301ZM124.428 22.1562C123.657 22.9269 122.694 23.2801 121.506 23.2801C120.318 23.2801 119.355 22.8948 118.584 22.1241C117.813 21.3535 117.46 20.3902 117.46 19.1699V8.70183C117.46 7.51374 117.813 6.5183 118.584 5.74764C119.355 4.97699 120.318 4.59165 121.506 4.59165C122.694 4.59165 123.657 4.97699 124.428 5.74764C125.167 6.5183 125.552 7.48163 125.552 8.70183V19.1699C125.552 20.3902 125.167 21.3856 124.428 22.1562ZM123.854 21.5946C123.258 22.1874 122.513 22.4774 121.506 22.4774C120.513 22.4774 119.759 22.1645 119.151 21.5565C118.557 20.9617 118.263 20.2159 118.263 19.1699V8.70183C118.263 7.68462 118.559 6.90808 119.151 6.31529C119.759 5.70728 120.513 5.39442 121.506 5.39442C122.496 5.39442 123.247 5.70523 123.854 6.30932C124.435 6.91775 124.749 7.6753 124.749 8.70183V19.1699C124.749 20.203 124.431 20.9902 123.854 21.5946Z" fill="#FFFF0B"/>
<path fill-rule="evenodd" clip-rule="evenodd" d="M96.7779 25.1748H99.0257V6.10104L106.251 25.1748H109.558V2.6973H107.31V21.7711L100.085 2.6973H96.7779V25.1748ZM106.507 17.3855L100.64 1.89453H95.9752V25.9776H99.8284V10.4866L105.696 25.9776H110.361V1.89453H106.507V17.3855Z" fill="#FFFF0B"/>
<path fill-rule="evenodd" clip-rule="evenodd" d="M77.6628 25.1748H80.0069L81.4198 19.9087H88.5805L89.9934 25.1748H92.498L86.3327 2.6973H83.8281L77.6628 25.1748ZM87.9647 20.7114L89.3776 25.9776H93.5506L86.945 1.89453H83.2159L76.6102 25.9776H80.6227L82.0356 20.7114H87.9647ZM81.9336 17.693L85.0162 6.39004L88.0667 17.693H81.9336ZM82.9846 16.8903H87.0186L85.0122 9.45591L82.9846 16.8903Z" fill="#FFFF0B"/>
<path fill-rule="evenodd" clip-rule="evenodd" d="M70.3116 25.9776V5.10561H74.197V25.9776H70.3116ZM73.9143 0.701357L73.93 0.71899C74.2979 1.13284 74.5502 1.67025 74.5502 2.31198C74.5502 2.97737 74.3041 3.51617 73.93 3.93707L73.9143 3.95471L73.8976 3.97139C73.439 4.43002 72.8721 4.62395 72.2703 4.62395C71.6458 4.62395 71.0753 4.43575 70.6109 3.97139C70.1466 3.50702 69.9584 2.93657 69.9584 2.31198C69.9584 1.71024 70.1523 1.14331 70.6109 0.684677L71.1786 1.25232C70.8896 1.54132 70.7611 1.89454 70.7611 2.31198C70.7611 2.76153 70.8896 3.11475 71.1786 3.40374C71.4676 3.69274 71.8208 3.82118 72.2703 3.82118C72.6878 3.82118 73.041 3.69274 73.33 3.40374C73.5869 3.11475 73.7474 2.76153 73.7474 2.31198C73.7474 1.89454 73.5869 1.54132 73.33 1.25232C73.041 0.963325 72.6878 0.802769 72.2703 0.802769C71.8208 0.802769 71.4676 0.963325 71.1786 1.25232L70.6109 0.684677C71.0448 0.250766 71.6001 0 72.2703 0C72.9177 0 73.4706 0.257587 73.8976 0.684675L73.9143 0.701357ZM71.1144 25.1748H73.3942V5.90838H71.1144V25.1748Z" fill="#FFFF0B"/>
<path fill-rule="evenodd" clip-rule="evenodd" d="M54.9879 23.7297C56.176 24.9178 57.7174 25.4958 59.5798 25.4958C61.4422 25.4958 62.9514 24.9178 64.1716 23.7297C65.3597 22.5416 65.9698 21.0324 65.9698 19.1699V18.3351H63.6257V19.1699C63.6257 20.3902 63.2404 21.3856 62.5019 22.1562C61.7312 22.9269 60.7679 23.2801 59.5798 23.2801C58.3917 23.2801 57.4284 22.8948 56.6577 22.1241C55.887 21.3535 55.5338 20.3902 55.5338 19.1699V8.70183C55.5338 7.51374 55.887 6.5183 56.6577 5.74764C57.4284 4.97699 58.3917 4.59165 59.5798 4.59165C60.7679 4.59165 61.7312 4.97699 62.5019 5.74764C63.2404 6.5183 63.6257 7.48163 63.6257 8.70183V9.53671H65.9698V8.70183C65.9698 6.87152 65.3597 5.36231 64.1716 4.17421C62.9514 2.98612 61.4422 2.37601 59.5798 2.37601C57.7174 2.37601 56.176 2.98612 54.9879 4.17421C53.7677 5.36231 53.1897 6.87152 53.1897 8.70183V19.1699C53.1897 21.0324 53.7677 22.5416 54.9879 23.7297ZM54.4241 3.60279C55.777 2.25182 57.5283 1.57324 59.5798 1.57324C61.6396 1.57324 63.3533 2.257 64.7316 3.59905L64.7393 3.60652C66.0885 4.95574 66.7726 6.67404 66.7726 8.70183V10.3395H62.823V8.70183C62.823 7.6753 62.5085 6.91775 61.9282 6.30933C61.3213 5.70523 60.5695 5.39442 59.5798 5.39442C58.5868 5.39442 57.8333 5.70728 57.2253 6.31529C56.6325 6.90808 56.3366 7.68462 56.3366 8.70183V19.1699C56.3366 20.2159 56.6305 20.9617 57.2253 21.5565C57.8333 22.1645 58.5868 22.4774 59.5798 22.4774C60.5869 22.4774 61.3323 22.1874 61.9282 21.5946C62.5044 20.9902 62.823 20.203 62.823 19.1699V17.5323H66.7726V19.1699C66.7726 21.2277 66.0899 22.9467 64.7393 24.2973L64.7317 24.3049C63.3461 25.654 61.6287 26.2985 59.5798 26.2985C57.5393 26.2985 55.784 25.659 54.4239 24.301C53.0302 22.9418 52.387 21.2157 52.387 19.1699V8.70183C52.387 6.68588 53.0316 4.96062 54.4241 3.60279Z" fill="#FFFF0B"/>
<path fill-rule="evenodd" clip-rule="evenodd" d="M34.6206 25.1748H36.9647L38.3776 19.9087H45.5383L46.9511 25.1748H49.4558L43.2905 2.6973H40.7859L34.6206 25.1748ZM44.9225 20.7114L46.3354 25.9776H50.5084L43.9027 1.89453H40.1736L33.568 25.9776H37.5805L38.9933 20.7114H44.9225ZM38.8913 17.693L41.974 6.39004L45.0245 17.693H38.8913ZM39.9424 16.8903H43.9763L41.9699 9.45591L39.9424 16.8903Z" fill="#FFFF0B"/>
<path fill-rule="evenodd" clip-rule="evenodd" d="M30.4693 25.1748H33.4878L24.4646 15.5737H25.2032C25.3232 15.5737 25.4419 15.5713 25.5595 15.5665C27.2669 15.4966 28.7176 14.9171 29.8592 13.7755C31.0795 12.5553 31.6896 11.014 31.6896 9.15157C31.6896 7.28914 31.0795 5.74782 29.8592 4.52762C28.639 3.30741 27.0656 2.6973 25.2032 2.6973H19.1664V25.1748H21.5104V15.5737L30.4693 25.1748ZM22.3132 17.6107L30.1204 25.9776H35.3438L26.2635 16.3156C27.8661 16.1261 29.2805 15.4895 30.4269 14.3432C31.8103 12.9597 32.4923 11.2083 32.4923 9.15157C32.4923 7.09488 31.8103 5.34342 30.4269 3.95997C29.0407 2.57375 27.2556 1.89453 25.2032 1.89453H18.3636V25.9776H22.3132V17.6107ZM25.2032 13.3581H21.5104V4.91294H25.2032C26.4234 4.91294 27.4188 5.33038 28.1895 6.13315C28.9601 6.93592 29.3455 7.93136 29.3455 9.15157C29.3455 10.3718 28.9601 11.3993 28.1895 12.17C27.4188 12.9727 26.4234 13.3581 25.2032 13.3581ZM22.3132 5.71571H25.2032C26.2198 5.71571 27.0012 6.05452 27.6104 6.6891C28.2251 7.32943 28.5427 8.11994 28.5427 9.15157C28.5427 10.1933 28.2192 11.0049 27.6218 11.6023L27.616 11.6081L27.6104 11.614C27.0118 12.2375 26.2367 12.5553 25.2032 12.5553H22.3132V5.71571Z" fill="#FFFF0B"/>
<path fill-rule="evenodd" clip-rule="evenodd" d="M2.60097 23.7297C3.78907 24.9178 5.33039 25.4958 7.19281 25.4958C9.05524 25.4958 10.5644 24.9178 11.7847 23.7297C12.9728 22.5416 13.5829 21.0324 13.5829 19.1699V12.812H7.35337V15.0277H11.2388V19.1699C11.2388 20.3902 10.8534 21.3856 10.1149 22.1562C9.34424 22.9269 8.38091 23.2801 7.19281 23.2801C6.00471 23.2801 5.04139 22.8948 4.27073 22.1241C3.50007 21.3535 3.14686 20.3902 3.14686 19.1699V8.70183C3.14686 7.51374 3.50007 6.5183 4.27073 5.74764C5.04139 4.97699 6.00471 4.59165 7.19281 4.59165C8.38091 4.59165 9.34424 4.97699 10.1149 5.74764C10.8534 6.5183 11.2388 7.48163 11.2388 8.70183V9.53671H13.5829V8.70183C13.5829 6.87152 12.9728 5.36231 11.7847 4.17421C10.5644 2.98612 9.05524 2.37601 7.19281 2.37601C5.33039 2.37601 3.78907 2.98612 2.60097 4.17421C1.38076 5.36231 0.802769 6.87152 0.802769 8.70183V19.1699C0.802769 21.0324 1.38076 22.5416 2.60097 23.7297ZM2.03714 3.60276C3.3901 2.25181 5.14135 1.57324 7.19281 1.57324C9.25266 1.57324 10.9663 2.257 12.3447 3.59905L12.3523 3.60652C13.7016 4.95574 14.3856 6.67404 14.3856 8.70183V10.3395H10.436V8.70183C10.436 7.67526 10.1215 6.91768 9.5412 6.30925C8.93424 5.70521 8.18246 5.39442 7.19281 5.39442C6.19988 5.39442 5.44639 5.70728 4.83838 6.31529C4.24559 6.90808 3.94963 7.68462 3.94963 8.70183V19.1699C3.94963 20.2159 4.24356 20.9617 4.83838 21.5565C5.44638 22.1645 6.19987 22.4774 7.19281 22.4774C8.19987 22.4774 8.94532 22.1875 9.5412 21.5946C10.1174 20.9903 10.436 20.203 10.436 19.1699V15.8304H6.5506V12.0092H14.3856V19.1699C14.3856 21.2277 13.703 22.9467 12.3523 24.2973L12.3447 24.3049C10.9591 25.654 9.24172 26.2985 7.19281 26.2985C5.1524 26.2985 3.39703 25.659 2.03701 24.301C0.643214 22.9418 0 21.2157 0 19.1699V8.70183C0 6.68587 0.644661 4.96059 2.03714 3.60276Z" fill="#FFFF0B"/>
<path d="M122.309 25.4957C120.446 25.4957 118.905 24.9177 117.717 23.7296C116.497 22.5415 115.919 21.0323 115.919 19.1699V8.7018C115.919 6.87148 116.497 5.36228 117.717 4.17418C118.905 2.98608 120.446 2.37598 122.309 2.37598C124.171 2.37598 125.68 2.98608 126.901 4.17418C128.089 5.36228 128.699 6.87148 128.699 8.7018V19.1699C128.699 21.0323 128.089 22.5415 126.901 23.7296C125.68 24.9177 124.171 25.4957 122.309 25.4957ZM122.309 23.2801C123.497 23.2801 124.46 22.9269 125.231 22.1562C125.969 21.3856 126.355 20.3901 126.355 19.1699V8.7018C126.355 7.48159 125.969 6.51827 125.231 5.74761C124.46 4.97695 123.497 4.59162 122.309 4.59162C121.121 4.59162 120.157 4.97695 119.387 5.74761C118.616 6.51827 118.263 7.5137 118.263 8.7018V19.1699C118.263 20.3901 118.616 21.3534 119.387 22.1241C120.157 22.8948 121.121 23.2801 122.309 23.2801Z" fill="white"/>
<path d="M97.5807 25.1748V2.69727H100.888L108.113 21.7711V2.69727H110.361V25.1748H107.053L99.8285 6.10101V25.1748H97.5807Z" fill="white"/>
<path d="M78.4658 25.1748L84.6311 2.69727H87.1357L93.301 25.1748H90.7964L89.3835 19.9086H82.2228L80.8099 25.1748H78.4658ZM82.7366 17.693H88.8697L85.8192 6.39001L82.7366 17.693Z" fill="white"/>
<path d="M71.9171 25.1748V5.90835H74.197V25.1748H71.9171ZM73.0731 3.82115C72.6236 3.82115 72.2703 3.69271 71.9813 3.40371C71.6923 3.11471 71.5639 2.76149 71.5639 2.31194C71.5639 1.8945 71.6923 1.54128 71.9813 1.25229C72.2703 0.96329 72.6236 0.802734 73.0731 0.802734C73.4905 0.802734 73.8438 0.96329 74.1328 1.25229C74.3896 1.54128 74.5502 1.8945 74.5502 2.31194C74.5502 2.76149 74.3896 3.11471 74.1328 3.40371C73.8438 3.69271 73.4905 3.82115 73.0731 3.82115Z" fill="white"/>
<path d="M60.3826 25.4957C58.5202 25.4957 56.9789 24.9177 55.7908 23.7296C54.5705 22.5415 53.9926 21.0323 53.9926 19.1699V8.7018C53.9926 6.87148 54.5705 5.36228 55.7908 4.17418C56.9789 2.98608 58.5202 2.37598 60.3826 2.37598C62.245 2.37598 63.7542 2.98608 64.9744 4.17418C66.1625 5.36228 66.7726 6.87148 66.7726 8.7018V9.53668H64.4286V8.7018C64.4286 7.48159 64.0432 6.51827 63.3047 5.74761C62.534 4.97695 61.5707 4.59162 60.3826 4.59162C59.1945 4.59162 58.2312 4.97695 57.4605 5.74761C56.6899 6.51827 56.3366 7.5137 56.3366 8.7018V19.1699C56.3366 20.3901 56.6899 21.3534 57.4605 22.1241C58.2312 22.8948 59.1945 23.2801 60.3826 23.2801C61.5707 23.2801 62.534 22.9269 63.3047 22.1562C64.0432 21.3856 64.4286 20.3901 64.4286 19.1699V18.335H66.7726V19.1699C66.7726 21.0323 66.1625 22.5415 64.9744 23.7296C63.7542 24.9177 62.245 25.4957 60.3826 25.4957Z" fill="white"/>
<path d="M35.4236 25.1748L41.5889 2.69727H44.0935L50.2588 25.1748H47.7541L46.3412 19.9086H39.1805L37.7677 25.1748H35.4236ZM39.6943 17.693H45.8275L42.777 6.39001L39.6943 17.693Z" fill="white"/>
<path d="M31.2722 25.1748L22.3133 15.5737V25.1748H19.9692V2.69727H26.006C27.8684 2.69727 29.4419 3.30737 30.6621 4.52758C31.8823 5.74779 32.4924 7.28911 32.4924 9.15153C32.4924 11.014 31.8823 12.5553 30.6621 13.7755C29.4419 14.9957 27.8684 15.5737 26.006 15.5737H25.2675L34.2906 25.1748H31.2722ZM22.3133 13.358H26.006C27.2262 13.358 28.2216 12.9727 28.9923 12.1699C29.763 11.3993 30.1483 10.3717 30.1483 9.15153C30.1483 7.93132 29.763 6.93589 28.9923 6.13312C28.2216 5.33035 27.2262 4.91291 26.006 4.91291H22.3133V13.358Z" fill="white"/>
<path d="M7.99563 25.4957C6.13321 25.4957 4.59189 24.9177 3.40379 23.7296C2.18358 22.5415 1.60559 21.0323 1.60559 19.1699V8.7018C1.60559 6.87148 2.18358 5.36228 3.40379 4.17418C4.59189 2.98608 6.13321 2.37598 7.99563 2.37598C9.85806 2.37598 11.3673 2.98608 12.5875 4.17418C13.7756 5.36228 14.3857 6.87148 14.3857 8.7018V9.53668H12.0416V8.7018C12.0416 7.48159 11.6563 6.51827 10.9177 5.74761C10.1471 4.97695 9.18373 4.59162 7.99563 4.59162C6.80754 4.59162 5.84421 4.97695 5.07355 5.74761C4.3029 6.51827 3.94968 7.5137 3.94968 8.7018V19.1699C3.94968 20.3901 4.3029 21.3534 5.07355 22.1241C5.84421 22.8948 6.80754 23.2801 7.99563 23.2801C9.18373 23.2801 10.1471 22.9269 10.9177 22.1562C11.6563 21.3856 12.0416 20.3901 12.0416 19.1699V15.0276H8.15619V12.812H14.3857V19.1699C14.3857 21.0323 13.7756 22.5415 12.5875 23.7296C11.3673 24.9177 9.85806 25.4957 7.99563 25.4957Z" fill="white"/>
</g>
</svg>
