<svg width="176" height="58" viewBox="0 0 176 58" fill="none" xmlns="http://www.w3.org/2000/svg">
<path fill-rule="evenodd" clip-rule="evenodd" d="M159.443 32.2474C161.057 33.8619 163.152 34.6474 165.683 34.6474C168.214 34.6474 170.265 33.8619 171.923 32.2474C173.537 30.6329 174.366 28.582 174.366 26.0511V11.8258C174.366 9.33859 173.537 7.2877 171.923 5.67318C170.265 4.05865 168.214 3.22957 165.683 3.22957C163.152 3.22957 161.057 4.05865 159.443 5.67318C157.785 7.2877 156.999 9.33859 156.999 11.8258V26.0511C156.999 28.582 157.785 30.6329 159.443 32.2474ZM158.677 33.0238C160.525 34.8692 162.91 35.7383 165.683 35.7383C168.467 35.7383 170.801 34.8624 172.684 33.0291L172.694 33.0188C174.53 31.1834 175.457 28.8474 175.457 26.0511V11.8258C175.457 9.07023 174.528 6.73527 172.694 4.90173L172.684 4.89158C170.811 3.06783 168.482 2.13867 165.683 2.13867C162.895 2.13867 160.515 3.06081 158.677 4.89666C156.784 6.74184 155.908 9.08633 155.908 11.8258V26.0511C155.908 28.8311 156.782 31.1767 158.677 33.0238ZM169.654 30.1093C168.606 31.1565 167.297 31.6365 165.683 31.6365C164.068 31.6365 162.759 31.1129 161.712 30.0656C160.665 29.0184 160.185 27.7093 160.185 26.0511V11.8258C160.185 10.2113 160.665 8.85859 161.712 7.81133C162.759 6.76407 164.068 6.24044 165.683 6.24044C167.297 6.24044 168.606 6.76407 169.654 7.81133C170.657 8.85859 171.181 10.1677 171.181 11.8258V26.0511C171.181 27.7093 170.657 29.062 169.654 30.1093ZM168.874 29.346C168.064 30.1516 167.051 30.5456 165.683 30.5456C164.334 30.5456 163.31 30.1205 162.483 29.2942C161.675 28.4859 161.276 27.4725 161.276 26.0511V11.8258C161.276 10.4435 161.678 9.38827 162.483 8.58271C163.31 7.75648 164.334 7.33134 165.683 7.33134C167.028 7.33134 168.049 7.7537 168.874 8.57461C169.663 9.40141 170.09 10.4309 170.09 11.8258V26.0511C170.09 27.4549 169.657 28.5247 168.874 29.346Z" fill="#FFFF0B"/>
<path fill-rule="evenodd" clip-rule="evenodd" d="M132.079 34.2102H135.134V8.29051L144.952 34.2102H149.446V3.66511H146.392V29.5848L136.574 3.66511H132.079V34.2102ZM145.301 23.6252L137.327 2.57422H130.989V35.3011H136.225V14.2501L144.199 35.3011H150.537V2.57422H145.301V23.6252Z" fill="#FFFF0B"/>
<path fill-rule="evenodd" clip-rule="evenodd" d="M106.104 34.2102H109.29L111.21 27.0539H120.94L122.86 34.2102H126.264L117.886 3.66511H114.482L106.104 34.2102ZM120.104 28.1448L122.024 35.3011H127.694L118.718 2.57422H113.65L104.674 35.3011H110.126L112.046 28.1448H120.104ZM111.908 24.0431L116.097 8.68324L120.242 24.0431H111.908ZM113.336 22.9522H118.818L116.091 12.8495L113.336 22.9522Z" fill="#FFFF0B"/>
<path fill-rule="evenodd" clip-rule="evenodd" d="M96.1143 35.3014V6.9381H101.394V35.3014H96.1143ZM101.01 0.953085L101.031 0.977047C101.531 1.53943 101.874 2.26973 101.874 3.14178C101.874 4.046 101.54 4.77818 101.031 5.35015L101.01 5.37411L100.987 5.39678C100.364 6.02003 99.5938 6.28357 98.7761 6.28357C97.9273 6.28357 97.1521 6.02781 96.5211 5.39678C95.89 4.76575 95.6343 3.99055 95.6343 3.14178C95.6343 2.32408 95.8978 1.55367 96.5211 0.930418L97.2925 1.7018C96.8997 2.09452 96.7252 2.57452 96.7252 3.14178C96.7252 3.75269 96.8997 4.23268 97.2925 4.6254C97.6852 5.01813 98.1652 5.19267 98.7761 5.19267C99.3433 5.19267 99.8233 5.01813 100.216 4.6254C100.565 4.23268 100.783 3.75269 100.783 3.14178C100.783 2.57452 100.565 2.09452 100.216 1.7018C99.8233 1.30908 99.3433 1.0909 98.7761 1.0909C98.1652 1.0909 97.6852 1.30908 97.2925 1.7018L96.5211 0.930418C97.1107 0.34077 97.8652 0 98.7761 0C99.6557 0 100.407 0.35004 100.987 0.930416L101.01 0.953085ZM97.2052 34.2105H100.303V8.029H97.2052V34.2105Z" fill="#FFFF0B"/>
<path fill-rule="evenodd" clip-rule="evenodd" d="M75.2913 32.2474C76.9059 33.8619 79.0004 34.6474 81.5313 34.6474C84.0621 34.6474 86.113 33.8619 87.7712 32.2474C89.3857 30.6329 90.2148 28.582 90.2148 26.0511V24.9166H87.0294V26.0511C87.0294 27.7093 86.5057 29.062 85.5021 30.1093C84.4549 31.1565 83.1458 31.6365 81.5313 31.6365C79.9167 31.6365 78.6077 31.1129 77.5604 30.0656C76.5131 29.0184 76.0331 27.7093 76.0331 26.0511V11.8258C76.0331 10.2113 76.5131 8.85859 77.5604 7.81133C78.6077 6.76407 79.9167 6.24044 81.5313 6.24044C83.1458 6.24044 84.4549 6.76407 85.5021 7.81133C86.5057 8.85859 87.0294 10.1677 87.0294 11.8258V12.9604H90.2148V11.8258C90.2148 9.33859 89.3857 7.2877 87.7712 5.67318C86.113 4.05865 84.0621 3.22957 81.5313 3.22957C79.0004 3.22957 76.9059 4.05865 75.2913 5.67318C73.6332 7.2877 72.8477 9.33859 72.8477 11.8258V26.0511C72.8477 28.582 73.6332 30.6329 75.2913 32.2474ZM74.5251 4.89666C76.3637 3.0608 78.7435 2.13867 81.5313 2.13867C84.3304 2.13867 86.6592 3.06783 88.5322 4.89158L88.5426 4.90173C90.3761 6.7352 91.3057 9.07023 91.3057 11.8258V14.0513H85.9385V11.8258C85.9385 10.4309 85.5112 9.40141 84.7226 8.57461C83.8978 7.7537 82.8762 7.33134 81.5313 7.33134C80.1819 7.33134 79.158 7.75648 78.3318 8.58271C77.5262 9.38827 77.124 10.4435 77.124 11.8258V26.0511C77.124 27.4725 77.5235 28.4859 78.3318 29.2942C79.158 30.1205 80.1819 30.5456 81.5313 30.5456C82.8998 30.5456 83.9129 30.1516 84.7226 29.346C85.5056 28.5247 85.9385 27.4549 85.9385 26.0511V23.8257H91.3057V26.0511C91.3057 28.8474 90.378 31.1834 88.5426 33.0188L88.5323 33.0291C86.6493 34.8625 84.3155 35.7383 81.5313 35.7383C78.7585 35.7383 76.3731 34.8692 74.5249 33.0238C72.6309 31.1767 71.7568 28.8311 71.7568 26.0511V11.8258C71.7568 9.08632 72.6329 6.74184 74.5251 4.89666Z" fill="#FFFF0B"/>
<path fill-rule="evenodd" clip-rule="evenodd" d="M49.2563 34.2102H52.4417L54.3617 27.0539H64.0925L66.0125 34.2102H69.4161L61.038 3.66511H57.6344L49.2563 34.2102ZM63.2557 28.1448L65.1757 35.3011H70.8465L61.87 2.57422H56.8024L47.8259 35.3011H53.2785L55.1985 28.1448H63.2557ZM55.0599 24.0431L59.2489 8.68324L63.3943 24.0431H55.0599ZM56.4882 22.9522H61.97L59.2434 12.8495L56.4882 22.9522Z" fill="#FFFF0B"/>
<path fill-rule="evenodd" clip-rule="evenodd" d="M41.9712 34.2102H46.073L33.8113 21.1631H34.8149C34.978 21.1631 35.1394 21.1598 35.2991 21.1533C37.6193 21.0583 39.5908 20.2708 41.1421 18.7195C42.8003 17.0613 43.6294 14.9668 43.6294 12.4359C43.6294 9.90504 42.8003 7.81052 41.1421 6.15236C39.484 4.4942 37.3458 3.66511 34.8149 3.66511H26.6114V34.2102H29.7968V21.1631L41.9712 34.2102ZM30.8877 23.9312L41.4971 35.3011H48.5953L36.2558 22.1712C38.4336 21.9137 40.3557 21.0487 41.9135 19.4909C43.7935 17.6109 44.7203 15.2308 44.7203 12.4359C44.7203 9.64105 43.7935 7.26097 41.9135 5.38098C40.0298 3.49723 37.604 2.57422 34.8149 2.57422H25.5205V35.3011H30.8877V23.9312ZM34.8149 18.1522H29.7968V6.67599H34.8149C36.4731 6.67599 37.8258 7.24326 38.8731 8.33415C39.9203 9.42505 40.444 10.7778 40.444 12.4359C40.444 14.0941 39.9203 15.4904 38.8731 16.5377C37.8258 17.6286 36.4731 18.1522 34.8149 18.1522ZM30.8877 7.76689H34.8149C36.1964 7.76689 37.2583 8.22729 38.0861 9.08963C38.9215 9.95979 39.3531 11.034 39.3531 12.4359C39.3531 13.8515 38.9135 14.9545 38.1017 15.7663L38.0938 15.7742L38.0861 15.7822C37.2728 16.6295 36.2194 17.0613 34.8149 17.0613H30.8877V7.76689Z" fill="#FFFF0B"/>
<path fill-rule="evenodd" clip-rule="evenodd" d="M4.1014 32.2474C5.71593 33.8619 7.81045 34.6474 10.3413 34.6474C12.8722 34.6474 14.9231 33.8619 16.5813 32.2474C18.1958 30.6329 19.0249 28.582 19.0249 26.0511V17.4112H10.5595V20.4221H15.8394V26.0511C15.8394 27.7093 15.3158 29.062 14.3122 30.1093C13.2649 31.1565 11.9559 31.6365 10.3413 31.6365C8.7268 31.6365 7.41772 31.1129 6.37046 30.0656C5.3232 29.0184 4.84321 27.7093 4.84321 26.0511V11.8258C4.84321 10.2113 5.3232 8.85859 6.37046 7.81133C7.41772 6.76407 8.7268 6.24044 10.3413 6.24044C11.9559 6.24044 13.2649 6.76407 14.3122 7.81133C15.3158 8.85859 15.8394 10.1677 15.8394 11.8258V12.9604H19.0249V11.8258C19.0249 9.33859 18.1958 7.2877 16.5813 5.67318C14.9231 4.05865 12.8722 3.22957 10.3413 3.22957C7.81045 3.22957 5.71593 4.05865 4.1014 5.67318C2.44324 7.2877 1.65779 9.33859 1.65779 11.8258V26.0511C1.65779 28.582 2.44324 30.6329 4.1014 32.2474ZM3.3352 4.89662C5.17376 3.06079 7.55356 2.13867 10.3413 2.13867C13.1405 2.13867 15.4692 3.06783 17.3423 4.89158L17.3527 4.90173C19.1862 6.7352 20.1158 9.07023 20.1158 11.8258V14.0513H14.7485V11.8258C14.7485 10.4308 14.3212 9.40132 13.5326 8.57451C12.7078 7.75367 11.6862 7.33134 10.3413 7.33134C8.99201 7.33134 7.96808 7.75648 7.14184 8.58271C6.33629 9.38827 5.9341 10.4435 5.9341 11.8258V26.0511C5.9341 27.4725 6.33354 28.4859 7.14184 29.2942C7.96808 30.1205 8.99201 30.5456 10.3413 30.5456C11.7098 30.5456 12.7228 30.1517 13.5326 29.3461C14.3156 28.5248 14.7485 27.4549 14.7485 26.0511V21.513H9.46861V16.3203H20.1158V26.0511C20.1158 28.8474 19.1881 31.1834 17.3526 33.0188L17.3423 33.0291C15.4594 34.8625 13.1256 35.7383 10.3413 35.7383C7.56858 35.7383 5.18317 34.8692 3.33502 33.0238C1.44097 31.1768 0.566895 28.8311 0.566895 26.0511V11.8258C0.566895 9.0863 1.44294 6.7418 3.3352 4.89662Z" fill="#FFFF0B"/>
<path d="M166.796 34.14C164.271 34.14 162.181 33.3693 160.571 31.7851C158.917 30.2009 158.133 28.1885 158.133 25.7052V11.747C158.133 9.30642 158.917 7.29404 160.571 5.70983C162.181 4.12561 164.271 3.3121 166.796 3.3121C169.32 3.3121 171.366 4.12561 173.02 5.70983C174.631 7.29404 175.458 9.30642 175.458 11.747V25.7052C175.458 28.1885 174.631 30.2009 173.02 31.7851C171.366 33.3693 169.32 34.14 166.796 34.14ZM166.796 31.1857C168.406 31.1857 169.712 30.7147 170.757 29.6871C171.758 28.6595 172.28 27.3322 172.28 25.7052V11.747C172.28 10.1199 171.758 8.83544 170.757 7.80784C169.712 6.78024 168.406 6.26644 166.796 6.26644C165.185 6.26644 163.879 6.78024 162.834 7.80784C161.79 8.83544 161.311 10.1628 161.311 11.747V25.7052C161.311 27.3322 161.79 28.6167 162.834 29.6443C163.879 30.6719 165.185 31.1857 166.796 31.1857Z" fill="black"/>
<path d="M133.274 33.7119V3.74026H137.757L147.551 29.1733V3.74026H150.599V33.7119H146.115L136.321 8.27882V33.7119H133.274Z" fill="black"/>
<path d="M107.361 33.7119L115.719 3.74026H119.114L127.472 33.7119H124.076L122.161 26.6899H112.454L110.538 33.7119H107.361ZM113.15 23.7356H121.465L117.329 8.66416L113.15 23.7356Z" fill="black"/>
<path d="M98.4832 33.7119V8.02193H101.574V33.7119H98.4832ZM100.05 5.23886C99.4409 5.23886 98.9621 5.06759 98.5703 4.68224C98.1785 4.29689 98.0044 3.82591 98.0044 3.22648C98.0044 2.66986 98.1785 2.19888 98.5703 1.81353C98.9621 1.42818 99.4409 1.2141 100.05 1.2141C100.616 1.2141 101.095 1.42818 101.487 1.81353C101.835 2.19888 102.053 2.66986 102.053 3.22648C102.053 3.82591 101.835 4.29689 101.487 4.68224C101.095 5.06759 100.616 5.23886 100.05 5.23886Z" fill="black"/>
<path d="M82.8467 34.14C80.3219 34.14 78.2325 33.3693 76.6218 31.7851C74.9677 30.2009 74.1842 28.1885 74.1842 25.7052V11.747C74.1842 9.30642 74.9677 7.29404 76.6218 5.70983C78.2325 4.12561 80.3219 3.3121 82.8467 3.3121C85.3714 3.3121 87.4174 4.12561 89.0715 5.70983C90.6822 7.29404 91.5092 9.30642 91.5092 11.747V12.8602H88.3315V11.747C88.3315 10.1199 87.8091 8.83544 86.8079 7.80784C85.7632 6.78024 84.4573 6.26644 82.8467 6.26644C81.2361 6.26644 79.9301 6.78024 78.8854 7.80784C77.8407 8.83544 77.3619 10.1628 77.3619 11.747V25.7052C77.3619 27.3322 77.8407 28.6167 78.8854 29.6443C79.9301 30.6719 81.2361 31.1857 82.8467 31.1857C84.4573 31.1857 85.7632 30.7147 86.8079 29.6871C87.8091 28.6595 88.3315 27.3322 88.3315 25.7052V24.5919H91.5092V25.7052C91.5092 28.1885 90.6822 30.2009 89.0715 31.7851C87.4174 33.3693 85.3714 34.14 82.8467 34.14Z" fill="black"/>
<path d="M50.2703 33.7119L58.6282 3.74026H62.0235L70.3813 33.7119H66.986L65.0706 26.6899H55.3634L53.448 33.7119H50.2703ZM56.0599 23.7356H64.3742L60.2388 8.66416L56.0599 23.7356Z" fill="black"/>
<path d="M43.3838 33.7119L31.2388 20.9097V33.7119H28.0611V3.74026H36.2448C38.7696 3.74026 40.9026 4.55377 42.5567 6.1808C44.2109 7.80783 45.0379 9.86303 45.0379 12.3464C45.0379 14.8298 44.2109 16.8849 42.5567 18.512C40.9026 20.139 38.7696 20.9097 36.2448 20.9097H35.2436L47.4756 33.7119H43.3838ZM31.2388 17.9554H36.2448C37.899 17.9554 39.2484 17.4416 40.2931 16.3711C41.3379 15.3436 41.8602 13.9734 41.8602 12.3464C41.8602 10.7194 41.3379 9.39205 40.2931 8.32163C39.2484 7.25122 37.899 6.6946 36.2448 6.6946H31.2388V17.9554Z" fill="black"/>
<path d="M11.8294 34.14C9.30459 34.14 7.21514 33.3693 5.60451 31.7851C3.95036 30.2009 3.16682 28.1885 3.16682 25.7052V11.747C3.16682 9.30642 3.95036 7.29404 5.60451 5.70983C7.21514 4.12561 9.30459 3.3121 11.8294 3.3121C14.3541 3.3121 16.4 4.12561 18.0542 5.70983C19.6648 7.29404 20.4919 9.30642 20.4919 11.747V12.8602H17.3142V11.747C17.3142 10.1199 16.7918 8.83544 15.7906 7.80784C14.7459 6.78024 13.44 6.26644 11.8294 6.26644C10.2187 6.26644 8.91282 6.78024 7.86809 7.80784C6.82336 8.83544 6.34453 10.1628 6.34453 11.747V25.7052C6.34453 27.3322 6.82336 28.6167 7.86809 29.6443C8.91282 30.6719 10.2187 31.1857 11.8294 31.1857C13.44 31.1857 14.7459 30.7147 15.7906 29.6871C16.7918 28.6595 17.3142 27.3322 17.3142 25.7052V20.1818H12.047V17.2275H20.4919V25.7052C20.4919 28.1885 19.6648 30.2009 18.0542 31.7851C16.4 33.3693 14.3541 34.14 11.8294 34.14Z" fill="black"/>
<path fill-rule="evenodd" clip-rule="evenodd" d="M160.571 31.7851C162.181 33.3693 164.271 34.14 166.796 34.14C169.32 34.14 171.366 33.3693 173.02 31.7851C174.631 30.2009 175.458 28.1885 175.458 25.7052V11.747C175.458 9.30642 174.631 7.29404 173.02 5.70983C171.366 4.12561 169.32 3.3121 166.796 3.3121C164.271 3.3121 162.181 4.12561 160.571 5.70983C158.917 7.29404 158.133 9.30642 158.133 11.747V25.7052C158.133 28.1885 158.917 30.2009 160.571 31.7851ZM160.418 31.9377C162.075 33.5671 164.223 34.3541 166.796 34.3541C169.371 34.3541 171.473 33.5657 173.172 31.9385L173.174 31.9365C174.829 30.3089 175.676 28.2406 175.676 25.7052V11.747C175.676 9.25374 174.829 7.18561 173.174 5.55842L173.172 5.55643C171.475 3.93116 169.374 3.098 166.796 3.098C164.22 3.098 162.073 3.92969 160.418 5.55718C158.717 7.18669 157.915 9.25679 157.915 11.747V25.7052C157.915 28.2375 158.717 30.3079 160.418 31.9377ZM170.757 29.6871C169.712 30.7147 168.406 31.1857 166.796 31.1857C165.185 31.1857 163.879 30.6719 162.834 29.6443C161.79 28.6167 161.311 27.3322 161.311 25.7052V11.747C161.311 10.1628 161.79 8.83544 162.834 7.80784C163.879 6.78024 165.185 6.26644 166.796 6.26644C168.406 6.26644 169.712 6.78024 170.757 7.80784C171.758 8.83544 172.28 10.1199 172.28 11.747V25.7052C172.28 27.3322 171.758 28.6595 170.757 29.6871ZM170.601 29.5373C169.604 30.5175 168.357 30.9716 166.796 30.9716C165.238 30.9716 163.989 30.4771 162.988 29.4929C161.991 28.5122 161.528 27.2857 161.528 25.7052V11.747C161.528 10.2083 161.992 8.93937 162.988 7.95921C163.989 6.97498 165.238 6.48051 166.796 6.48051C168.353 6.48051 169.601 6.97445 170.601 7.95762C171.56 8.94195 172.063 10.1715 172.063 11.747V25.7052C172.063 27.2823 171.559 28.5541 170.601 29.5373Z" fill="black"/>
<path fill-rule="evenodd" clip-rule="evenodd" d="M133.274 33.7119H136.321V8.27882L146.115 33.7119H150.599V3.74026H147.551V29.1733L137.757 3.74026H133.274V33.7119ZM147.334 28.0037L137.908 3.52616H133.056V33.9259H136.538V9.44835L145.965 33.9259H150.816V3.52616H147.334V28.0037Z" fill="black"/>
<path fill-rule="evenodd" clip-rule="evenodd" d="M107.361 33.7119H110.538L112.454 26.6899H122.161L124.076 33.7119H127.472L119.114 3.74026H115.719L107.361 33.7119ZM121.994 26.904L123.909 33.9259H127.757L119.28 3.52616H115.553L107.075 33.9259H110.705L112.621 26.904H121.994ZM113.15 23.7356L117.329 8.66416L121.465 23.7356H113.15ZM113.435 23.5215H121.18L117.328 9.48176L113.435 23.5215Z" fill="black"/>
<path fill-rule="evenodd" clip-rule="evenodd" d="M98.2656 33.9259V7.80784H101.792V33.9259H98.2656ZM101.65 1.67129C102.028 2.08993 102.27 2.61003 102.27 3.22646C102.27 3.88346 102.03 4.40393 101.65 4.82446L101.641 4.83387C101.203 5.26446 100.666 5.45293 100.05 5.45293C99.3935 5.45293 98.8558 5.26572 98.4164 4.83361C97.9771 4.40149 97.7868 3.87257 97.7868 3.22646C97.7868 2.6207 97.9787 2.09272 98.4164 1.66213C98.8475 1.23814 99.3811 1 100.05 1C100.679 1 101.212 1.23996 101.641 1.66213L101.65 1.67129ZM98.4832 33.7119H101.574V8.02193H98.4832V33.7119ZM98.5703 4.68224C98.9621 5.06759 99.4409 5.23886 100.05 5.23886C100.616 5.23886 101.095 5.06759 101.487 4.68224C101.835 4.29689 102.053 3.82591 102.053 3.22648C102.053 2.66986 101.835 2.19888 101.487 1.81353C101.095 1.42818 100.616 1.2141 100.05 1.2141C99.4409 1.2141 98.9621 1.42818 98.5703 1.81353C98.1785 2.19888 98.0044 2.66986 98.0044 3.22648C98.0044 3.82591 98.1785 4.29689 98.5703 4.68224Z" fill="black"/>
<path fill-rule="evenodd" clip-rule="evenodd" d="M76.6218 31.7851C78.2325 33.3693 80.3219 34.14 82.8467 34.14C85.3714 34.14 87.4174 33.3693 89.0715 31.7851C90.6822 30.2009 91.5092 28.1885 91.5092 25.7052V24.5919H88.3315V25.7052C88.3315 27.3322 87.8091 28.6595 86.8079 29.6871C85.7632 30.7147 84.4573 31.1857 82.8467 31.1857C81.2361 31.1857 79.9301 30.6719 78.8854 29.6443C77.8407 28.6167 77.3619 27.3322 77.3619 25.7052V11.747C77.3619 10.1628 77.8407 8.83544 78.8854 7.80784C79.9301 6.78024 81.2361 6.26644 82.8467 6.26644C84.4573 6.26644 85.7632 6.78024 86.8079 7.80784C87.8091 8.83544 88.3315 10.1199 88.3315 11.747V12.8602H91.5092V11.747C91.5092 9.30642 90.6822 7.29404 89.0715 5.70983C87.4174 4.12561 85.3714 3.3121 82.8467 3.3121C80.3219 3.3121 78.2325 4.12561 76.6218 5.70983C74.9677 7.29404 74.1842 9.30642 74.1842 11.747V25.7052C74.1842 28.1885 74.9677 30.2009 76.6218 31.7851ZM76.4693 31.9377C74.7679 30.3079 73.9666 28.2375 73.9666 25.7052V11.747C73.9666 9.25679 74.7683 7.18669 76.4693 5.55718C78.1246 3.92969 80.2709 3.098 82.8467 3.098C85.425 3.098 87.5264 3.93116 89.2234 5.55643L89.2255 5.55842C90.8798 7.18561 91.7269 9.25374 91.7269 11.747V13.0743H88.1139V11.747C88.1139 10.1714 87.6107 8.9418 86.6523 7.95743C85.652 6.97439 84.4035 6.48051 82.8467 6.48051C81.289 6.48051 80.04 6.97498 79.0394 7.95921C78.0429 8.93937 77.5796 10.2083 77.5796 11.747V25.7052C77.5796 27.2857 78.0423 28.5122 79.0394 29.4929C80.04 30.4771 81.289 30.9716 82.8467 30.9716C84.4083 30.9716 85.655 30.5175 86.6523 29.5375C87.6096 28.5542 88.1139 27.2824 88.1139 25.7052V24.3778H91.7269V25.7052C91.7269 28.2406 90.8802 30.3089 89.2255 31.9365L89.2234 31.9385C87.5244 33.5657 85.4221 34.3541 82.8467 34.3541C80.2739 34.3541 78.1265 33.5671 76.4693 31.9377Z" fill="black"/>
<path fill-rule="evenodd" clip-rule="evenodd" d="M43.3838 33.7119H47.4756L35.2436 20.9097H36.2448C38.7696 20.9097 40.9026 20.139 42.5567 18.512C44.2109 16.8849 45.0379 14.8298 45.0379 12.3464C45.0379 9.86303 44.2109 7.80783 42.5567 6.1808C40.9026 4.55377 38.7696 3.74026 36.2448 3.74026H28.0611V33.7119H31.2388V20.9097L43.3838 33.7119ZM31.4565 21.4529L43.2892 33.9259H47.9789L35.7469 21.1238H36.2449C38.8182 21.1238 41.0096 20.3365 42.7107 18.6633C44.4091 16.9928 45.2556 14.8815 45.2556 12.3464C45.2556 9.81121 44.4091 7.69997 42.7107 6.02941C41.0115 4.35811 38.8211 3.52616 36.2449 3.52616H27.8435V33.9259H31.4565V21.4529ZM36.2448 17.9554H31.2388V6.6946H36.2448C37.899 6.6946 39.2484 7.25122 40.2931 8.32163C41.3379 9.39205 41.8602 10.7194 41.8602 12.3464C41.8602 13.9734 41.3379 15.3436 40.2931 16.3711C39.2484 17.4416 37.899 17.9554 36.2448 17.9554ZM31.4565 6.90867H36.2449C37.8438 6.90867 39.1352 7.44432 40.1362 8.46988C41.1386 9.49697 41.6426 10.7696 41.6426 12.3464C41.6426 13.9258 41.137 15.2384 40.1393 16.2198L40.1362 16.2229C39.1381 17.2455 37.8484 17.7413 36.2449 17.7413H31.4565V6.90867Z" fill="black"/>
<path fill-rule="evenodd" clip-rule="evenodd" d="M5.60451 31.7851C7.21514 33.3693 9.30459 34.14 11.8294 34.14C14.3541 34.14 16.4 33.3693 18.0542 31.7851C19.6648 30.2009 20.4919 28.1885 20.4919 25.7052V17.2275H12.047V20.1818H17.3142V25.7052C17.3142 27.3322 16.7918 28.6595 15.7906 29.6871C14.7459 30.7147 13.44 31.1857 11.8294 31.1857C10.2187 31.1857 8.91282 30.6719 7.86809 29.6443C6.82336 28.6167 6.34453 27.3322 6.34453 25.7052V11.747C6.34453 10.1628 6.82336 8.83544 7.86809 7.80784C8.91282 6.78024 10.2187 6.26644 11.8294 6.26644C13.44 6.26644 14.7459 6.78024 15.7906 7.80784C16.7918 8.83544 17.3142 10.1199 17.3142 11.747V12.8602H20.4919V11.747C20.4919 9.30642 19.6648 7.29404 18.0542 5.70983C16.4 4.12561 14.3541 3.3121 11.8294 3.3121C9.30459 3.3121 7.21514 4.12561 5.60451 5.70983C3.95036 7.29404 3.16682 9.30642 3.16682 11.747V25.7052C3.16682 28.1885 3.95036 30.2009 5.60451 31.7851ZM5.45171 31.9375C3.75045 30.3077 2.94922 28.2374 2.94922 25.7052V11.747C2.94922 9.25691 3.75084 7.18689 5.45171 5.55741C7.10703 3.92977 9.25341 3.098 11.8294 3.098C14.4077 3.098 16.5091 3.93116 18.2061 5.55643L18.2081 5.55843C19.8624 7.18561 20.7096 9.25374 20.7096 11.747V13.0743H17.0966V11.747C17.0966 10.1715 16.5934 8.94193 15.6351 7.95759C14.6348 6.97444 13.3863 6.48051 11.8294 6.48051C10.2717 6.48051 9.02268 6.97498 8.02205 7.95921C7.02555 8.93937 6.56224 10.2083 6.56224 11.747V25.7052C6.56224 27.2857 7.025 28.5122 8.02205 29.4929C9.02268 30.4771 10.2717 30.9716 11.8294 30.9716C13.391 30.9716 14.6378 30.5175 15.6351 29.5373C16.5923 28.5541 17.0966 27.2823 17.0966 25.7052V20.3959H11.8294V17.0134H20.7096V25.7052C20.7096 28.2406 19.8628 30.3089 18.2081 31.9365L18.2061 31.9385C16.5071 33.5657 14.4047 34.3541 11.8294 34.3541C9.25643 34.3541 7.10894 33.567 5.45171 31.9375Z" fill="black"/>
<path d="M144.861 57.78L145.53 55.3928L143.408 47.6755H144.356L145.985 53.8013L147.627 47.6755H148.511L145.732 57.78H144.861Z" fill="black"/>
<path d="M137.92 45.1493H138.817V55.2539H137.92V45.1493ZM141.406 55.2539L138.817 51.4647L141.444 47.6755H142.442L139.814 51.4141L142.454 55.2539H141.406Z" fill="black"/>
<path d="M133.003 55.2539V49.7216C133.003 49.0901 133.205 48.5722 133.622 48.1681C134.026 47.7639 134.556 47.5492 135.188 47.5492H135.908V48.3954H135.188C134.809 48.3954 134.493 48.5217 134.253 48.7617C134.013 49.0143 133.9 49.3301 133.9 49.7216V55.2539H133.003Z" fill="black"/>
<path d="M128.609 55.3802C127.978 55.3802 127.447 55.1781 127.043 54.7739C126.626 54.3697 126.424 53.8392 126.424 53.2077V49.7216C126.424 49.0901 126.626 48.5722 127.043 48.1681C127.447 47.7639 127.978 47.5492 128.609 47.5492C129.241 47.5492 129.771 47.7639 130.188 48.1681C130.592 48.5722 130.807 49.0901 130.807 49.7216V51.8436H127.321V53.2077C127.321 53.6119 127.435 53.9276 127.675 54.1676C127.915 54.4202 128.23 54.5339 128.609 54.5339C128.988 54.5339 129.291 54.4202 129.531 54.1676C129.771 53.9276 129.898 53.6119 129.898 53.2077V52.8414H130.807V53.2077C130.807 53.8392 130.592 54.3697 130.188 54.7739C129.771 55.1781 129.241 55.3802 128.609 55.3802ZM127.321 51.0857H129.898V49.7216C129.898 49.3301 129.771 49.0143 129.531 48.7617C129.291 48.5217 128.988 48.3954 128.609 48.3954C128.23 48.3954 127.915 48.5217 127.675 48.7617C127.435 49.0143 127.321 49.3301 127.321 49.7216V51.0857Z" fill="black"/>
<path d="M119.846 57.78V49.7216C119.846 49.0901 120.048 48.5722 120.465 48.1681C120.869 47.7639 121.399 47.5492 122.031 47.5492C122.663 47.5492 123.193 47.7639 123.61 48.1681C124.014 48.5722 124.229 49.0901 124.229 49.7216V53.2709C124.229 53.9024 124.027 54.4076 123.635 54.7992C123.244 55.1907 122.738 55.3802 122.132 55.3802C121.526 55.3802 121.071 55.1907 120.743 54.7992V57.78H119.846ZM122.031 54.5339C122.41 54.5339 122.713 54.4202 122.953 54.1676C123.193 53.9276 123.319 53.6119 123.319 53.2077V49.7216C123.319 49.3301 123.193 49.0143 122.953 48.7617C122.713 48.5217 122.41 48.3954 122.031 48.3954C121.652 48.3954 121.336 48.5217 121.096 48.7617C120.856 49.0143 120.743 49.3301 120.743 49.7216V53.2077C120.743 53.6119 120.856 53.9276 121.096 54.1676C121.336 54.4202 121.652 54.5339 122.031 54.5339Z" fill="black"/>
<path d="M114.993 47.0819L113.666 45.3388H114.614L115.548 46.564L116.47 45.3388H117.418L116.091 47.0819H114.993ZM113.452 52.8414H114.348V53.2077C114.348 53.6119 114.462 53.9277 114.715 54.1676C114.955 54.4203 115.27 54.5339 115.649 54.5339C116.028 54.5339 116.331 54.4203 116.571 54.1676C116.811 53.9277 116.938 53.6119 116.938 53.2077C116.938 52.8035 116.811 52.4878 116.584 52.2731C116.407 52.1215 116.18 52.0204 115.877 51.9699C115.574 51.9194 115.258 51.8562 114.929 51.7805C114.601 51.7047 114.323 51.5405 114.083 51.2879C113.654 50.871 113.452 50.3532 113.452 49.7217C113.452 49.0901 113.654 48.5723 114.071 48.1681C114.475 47.7639 115.005 47.5492 115.649 47.5492C116.281 47.5492 116.799 47.7639 117.216 48.1681C117.62 48.5723 117.834 49.0901 117.834 49.7217V50.0879H116.938V49.7217C116.938 49.3301 116.811 49.0143 116.571 48.7617C116.331 48.5217 116.028 48.3954 115.649 48.3954C115.27 48.3954 114.955 48.5217 114.715 48.7617C114.462 49.0143 114.348 49.3301 114.348 49.7217C114.348 50.1385 114.462 50.4542 114.702 50.6563C114.879 50.8332 115.106 50.9468 115.409 50.9974C115.713 51.0479 116.028 51.111 116.357 51.1868C116.685 51.2626 116.963 51.4268 117.216 51.6541C117.62 52.071 117.834 52.5888 117.834 53.2077C117.834 53.8393 117.62 54.3697 117.216 54.7739C116.799 55.1781 116.281 55.3802 115.649 55.3802C115.005 55.3802 114.475 55.1781 114.071 54.7739C113.654 54.3697 113.452 53.8393 113.452 53.2077V52.8414Z" fill="black"/>
<path d="M105.333 51.8941V51.0226H108.276V51.8941H105.333Z" fill="black"/>
<path d="M99.0449 47.0819L100.194 45.3388H101.306L99.8912 47.0819H99.0449ZM99.9669 55.2539H99.0702V47.6755H99.9669V55.2539Z" fill="black"/>
<path d="M92.3275 55.2539V49.7216C92.3275 49.0901 92.5296 48.5722 92.9464 48.1681C93.3506 47.7639 93.8811 47.5492 94.5126 47.5492C95.1441 47.5492 95.6746 47.7639 96.0914 48.1681C96.4956 48.5722 96.7103 49.0901 96.7103 49.7216V55.2539H95.8009V49.7216C95.8009 49.3301 95.6746 49.0143 95.4346 48.7617C95.1947 48.5217 94.8915 48.3954 94.5126 48.3954C94.1337 48.3954 93.8179 48.5217 93.5779 48.7617C93.338 49.0143 93.2243 49.3301 93.2243 49.7216V55.2539H92.3275Z" fill="black"/>
<path d="M87.3785 47.0819L86.0523 45.3388H86.9996L87.9342 46.564L88.8563 45.3388H89.8036L88.4773 47.0819H87.3785ZM87.9342 55.3802C87.3027 55.3802 86.7722 55.1781 86.368 54.7739C85.9512 54.3697 85.7491 53.8393 85.7491 53.2077V49.7217C85.7491 49.0901 85.9512 48.5723 86.368 48.1681C86.7722 47.7639 87.3027 47.5492 87.9342 47.5492C88.5658 47.5492 89.0963 47.7639 89.5131 48.1681C89.9172 48.5723 90.132 49.0901 90.132 49.7217V51.8436H86.6459V53.2077C86.6459 53.6119 86.7596 53.9277 86.9996 54.1676C87.2395 54.4203 87.5553 54.5339 87.9342 54.5339C88.3132 54.5339 88.6163 54.4203 88.8563 54.1676C89.0963 53.9277 89.2226 53.6119 89.2226 53.2077V52.8414H90.132V53.2077C90.132 53.8393 89.9172 54.3697 89.5131 54.7739C89.0963 55.1781 88.5658 55.3802 87.9342 55.3802ZM86.6459 51.0858H89.2226V49.7217C89.2226 49.3301 89.0963 49.0143 88.8563 48.7617C88.6163 48.5217 88.3132 48.3954 87.9342 48.3954C87.5553 48.3954 87.2395 48.5217 86.9996 48.7617C86.7596 49.0143 86.6459 49.3301 86.6459 49.7217V51.0858Z" fill="black"/>
<path d="M75.6801 55.2539V49.7216C75.6801 49.0901 75.8821 48.5722 76.299 48.1681C76.7031 47.7639 77.2336 47.5492 77.8652 47.5492C78.6356 47.5492 79.2166 47.8397 79.6082 48.4081C79.9871 47.8397 80.5681 47.5492 81.3512 47.5492C81.9828 47.5492 82.5006 47.7639 82.9174 48.1681C83.3216 48.5722 83.5363 49.0901 83.5363 49.7216V55.2539H82.6395V49.7216C82.6395 49.3301 82.5132 49.0143 82.2733 48.7617C82.0333 48.5217 81.7301 48.3954 81.3512 48.3954C80.9723 48.3954 80.6565 48.5217 80.4166 48.7617C80.1766 49.0143 80.0629 49.3301 80.0629 49.7216V55.2539H79.1535V49.7216C79.1535 49.3301 79.0272 49.0143 78.7872 48.7617C78.5472 48.5217 78.2441 48.3954 77.8652 48.3954C77.4862 48.3954 77.1705 48.5217 76.9305 48.7617C76.6905 49.0143 76.5768 49.3301 76.5768 49.7216V55.2539H75.6801Z" fill="black"/>
<path d="M71.2867 55.3802C70.6551 55.3802 70.1246 55.1781 69.7205 54.7739C69.3036 54.3697 69.1016 53.8392 69.1016 53.2077V47.6755H69.9983V53.2077C69.9983 53.6119 70.112 53.9276 70.352 54.1676C70.592 54.4202 70.9077 54.5339 71.2867 54.5339C71.6656 54.5339 71.9687 54.4202 72.2087 54.1676C72.4487 53.9276 72.575 53.6119 72.575 53.2077V47.6755H73.4844V53.2077C73.4844 53.8392 73.2697 54.3697 72.8655 54.7739C72.4487 55.1781 71.9182 55.3802 71.2867 55.3802Z" fill="black"/>
<path d="M60.9454 51.8941V51.0226H63.8884V51.8941H60.9454Z" fill="black"/>
<path d="M51.907 45.1493H52.8037V55.2539H51.907V45.1493ZM55.393 55.2539L52.8037 51.4647L55.4309 47.6755H56.4287L53.8016 51.4141L56.4414 55.2539H55.393Z" fill="black"/>
<path d="M48.4739 55.2539V47.6755H49.3707V55.2539H48.4739ZM48.9286 46.8545C48.7518 46.8545 48.6129 46.804 48.4992 46.6903C48.3855 46.5766 48.335 46.4377 48.335 46.2608C48.335 46.0966 48.3855 45.9577 48.4992 45.844C48.6129 45.7304 48.7518 45.6672 48.9286 45.6672C49.0928 45.6672 49.2318 45.7304 49.3455 45.844C49.4465 45.9577 49.5097 46.0966 49.5097 46.2608C49.5097 46.4377 49.4465 46.5766 49.3455 46.6903C49.2318 46.804 49.0928 46.8545 48.9286 46.8545Z" fill="black"/>
<path d="M46.4619 55.2539H45.7419C45.1104 55.2539 44.5799 55.0518 44.1757 54.6476C43.7589 54.2434 43.5568 53.7129 43.5568 53.0814V46.4124H44.4536V47.6755H46.4619V48.5217H44.4536V53.0814C44.4536 53.4856 44.5673 53.8013 44.8073 54.0413C45.0472 54.2939 45.363 54.4076 45.7419 54.4076H46.4619V55.2539Z" fill="black"/>
<path d="M36.9783 55.2539V49.7216C36.9783 49.0901 37.1804 48.5722 37.5972 48.1681C38.0014 47.7639 38.5319 47.5492 39.1634 47.5492C39.7949 47.5492 40.3254 47.7639 40.7422 48.1681C41.1464 48.5722 41.3611 49.0901 41.3611 49.7216V55.2539H40.4517V49.7216C40.4517 49.3301 40.3254 49.0143 40.0855 48.7617C39.8455 48.5217 39.5423 48.3954 39.1634 48.3954C38.7845 48.3954 38.4687 48.5217 38.2287 48.7617C37.9888 49.0143 37.8751 49.3301 37.8751 49.7216V55.2539H36.9783Z" fill="black"/>
<path d="M32.585 55.3802C31.9535 55.3802 31.423 55.1781 31.0188 54.7739C30.602 54.3697 30.3999 53.8392 30.3999 53.2077C30.3999 52.5888 30.5894 52.0836 30.9936 51.692C31.3851 51.3131 31.8904 51.111 32.5093 51.111C33.0903 51.111 33.545 51.3005 33.8734 51.6541V49.7216C33.8734 49.3301 33.7471 49.0143 33.5071 48.7617C33.2671 48.5217 32.964 48.3954 32.585 48.3954C32.2061 48.3954 31.8904 48.5217 31.6504 48.7617C31.4104 49.0143 31.2967 49.3301 31.2967 49.7216V50.1385H30.3999V49.7216C30.3999 49.0901 30.602 48.5722 31.0188 48.1681C31.423 47.7639 31.9535 47.5492 32.585 47.5492C33.2166 47.5492 33.7471 47.7639 34.1639 48.1681C34.5681 48.5722 34.7828 49.0901 34.7828 49.7216V53.2077C34.7828 53.8392 34.5681 54.3697 34.1639 54.7739C33.7471 55.1781 33.2166 55.3802 32.585 55.3802ZM32.585 54.5339C32.964 54.5339 33.2671 54.4202 33.5071 54.1676C33.7471 53.9276 33.8734 53.6119 33.8734 53.2077C33.8734 52.8288 33.7471 52.513 33.5071 52.2604C33.2671 52.0204 32.964 51.8941 32.585 51.8941C32.2061 51.8941 31.8904 52.0204 31.6504 52.2604C31.4104 52.513 31.2967 52.8288 31.2967 53.2077C31.2967 53.6119 31.4104 53.9276 31.6504 54.1676C31.8904 54.4202 32.2061 54.5339 32.585 54.5339Z" fill="black"/>
<path fill-rule="evenodd" clip-rule="evenodd" d="M144.861 57.78H145.732L148.511 47.6755H147.627L145.985 53.8013L144.356 47.6755H143.408L145.53 55.3928L144.861 57.78ZM145.302 55.3923L144.571 57.9997H145.9L148.799 47.4558H147.458L145.986 52.9499L144.524 47.4558H143.12L145.302 55.3923Z" fill="black"/>
<path fill-rule="evenodd" clip-rule="evenodd" d="M137.7 44.9297H139.036V50.7623L141.329 47.4558H142.864L140.082 51.4155L142.872 55.4735H141.29L139.036 52.1755V55.4735H137.7V44.9297ZM138.817 51.4647L141.406 55.2539H142.454L139.814 51.4141L142.442 47.6755H141.444L138.817 51.4647V45.1493H137.92V55.2539H138.817V51.4647Z" fill="black"/>
<path fill-rule="evenodd" clip-rule="evenodd" d="M133.003 49.7216V55.2539H133.9V49.7216C133.9 49.3301 134.013 49.0143 134.253 48.7617C134.493 48.5217 134.809 48.3954 135.188 48.3954H135.908V47.5492H135.188C134.556 47.5492 134.026 47.7639 133.622 48.1681C133.205 48.5722 133.003 49.0901 133.003 49.7216ZM133.467 48.0118C133.004 48.4621 132.783 49.0389 132.783 49.7216V55.4735H134.119V49.7216C134.119 49.3782 134.217 49.1202 134.41 48.9151C134.605 48.7214 134.863 48.6151 135.188 48.6151H136.127V47.3295H135.188C134.503 47.3295 133.916 47.5639 133.467 48.0118Z" fill="black"/>
<path fill-rule="evenodd" clip-rule="evenodd" d="M127.043 54.7739C127.447 55.1781 127.978 55.3802 128.609 55.3802C129.241 55.3802 129.771 55.1781 130.188 54.7739C130.592 54.3697 130.807 53.8392 130.807 53.2077V52.8414H129.898V53.2077C129.898 53.6119 129.771 53.9276 129.531 54.1676C129.291 54.4202 128.988 54.5339 128.609 54.5339C128.23 54.5339 127.915 54.4202 127.675 54.1676C127.435 53.9276 127.321 53.6119 127.321 53.2077V51.8436H130.807V49.7216C130.807 49.0901 130.592 48.5722 130.188 48.1681C129.771 47.7639 129.241 47.5492 128.609 47.5492C127.978 47.5492 127.447 47.7639 127.043 48.1681C126.626 48.5722 126.424 49.0901 126.424 49.7216V53.2077C126.424 53.8392 126.626 54.3697 127.043 54.7739ZM126.889 54.9302C127.339 55.3803 127.928 55.5998 128.609 55.5998C129.292 55.5998 129.879 55.3796 130.341 54.9316L130.344 54.9292C130.792 54.4807 131.027 53.8929 131.027 53.2077V52.6218H129.678V53.2077C129.678 53.5615 129.57 53.8188 129.376 54.0123L129.372 54.0163C129.18 54.2182 128.939 54.3143 128.609 54.3143C128.278 54.3143 128.024 54.2167 127.834 54.0163L127.83 54.0123C127.64 53.8224 127.541 53.5675 127.541 53.2077V52.0633H131.027V49.7216C131.027 49.0351 130.791 48.4604 130.344 48.0127L130.341 48.0104C129.881 47.5646 129.295 47.3295 128.609 47.3295C127.925 47.3295 127.337 47.5639 126.889 48.0118M127.321 51.0857V49.7216C127.321 49.3301 127.435 49.0143 127.675 48.7617C127.915 48.5217 128.23 48.3954 128.609 48.3954C128.988 48.3954 129.291 48.5217 129.531 48.7617C129.771 49.0143 129.898 49.3301 129.898 49.7216V51.0857H127.321ZM129.678 50.8661H127.541V49.7216C127.541 49.3782 127.638 49.1202 127.832 48.9151C128.027 48.7214 128.284 48.6151 128.609 48.6151C128.932 48.6151 129.178 48.7198 129.374 48.9151C129.572 49.1239 129.678 49.3839 129.678 49.7216V50.8661Z" fill="black"/>
<path fill-rule="evenodd" clip-rule="evenodd" d="M119.846 49.7216V57.78H120.743V54.7992C120.81 54.88 120.883 54.9522 120.962 55.0159C121.265 55.2608 121.651 55.3802 122.132 55.3802C122.738 55.3802 123.244 55.1907 123.635 54.7992C124.027 54.4076 124.229 53.9024 124.229 53.2709V49.7216C124.229 49.0901 124.014 48.5722 123.61 48.1681C123.193 47.7639 122.663 47.5492 122.031 47.5492C121.399 47.5492 120.869 47.7639 120.465 48.1681C120.048 48.5722 119.846 49.0901 119.846 49.7216ZM120.31 48.0118C119.847 48.4621 119.626 49.0389 119.626 49.7216V57.9997H120.962V55.2876C121.285 55.4995 121.676 55.5998 122.132 55.5998C122.788 55.5998 123.352 55.393 123.79 54.9545C124.227 54.5174 124.448 53.9543 124.448 53.2709V49.7216C124.448 49.0351 124.213 48.4604 123.765 48.0127L123.763 48.0104C123.303 47.5646 122.717 47.3295 122.031 47.3295C121.346 47.3295 120.759 47.5639 120.31 48.0118ZM122.953 54.1676C122.713 54.4202 122.41 54.5339 122.031 54.5339C121.652 54.5339 121.336 54.4202 121.096 54.1676C120.856 53.9276 120.743 53.6119 120.743 53.2077V49.7216C120.743 49.3301 120.856 49.0143 121.096 48.7617C121.336 48.5217 121.652 48.3954 122.031 48.3954C122.41 48.3954 122.713 48.5217 122.953 48.7617C123.193 49.0143 123.319 49.3301 123.319 49.7216V53.2077C123.319 53.6119 123.193 53.9276 122.953 54.1676ZM122.796 48.9151C122.993 49.1239 123.1 49.3839 123.1 49.7216V53.2077C123.1 53.5615 122.991 53.8188 122.798 54.0123L122.794 54.0163C122.602 54.2182 122.36 54.3143 122.031 54.3143C121.699 54.3143 121.446 54.2167 121.255 54.0163L121.252 54.0123C121.062 53.8224 120.962 53.5675 120.962 53.2077V49.7216C120.962 49.3782 121.06 49.1202 121.254 48.9151C121.448 48.7214 121.706 48.6151 122.031 48.6151C122.354 48.6151 122.599 48.7198 122.796 48.9151Z" fill="black"/>
<path fill-rule="evenodd" clip-rule="evenodd" d="M114.883 47.3015L113.223 45.1192H114.722L115.547 46.2003L116.361 45.1192H117.861L116.2 47.3015H114.883ZM115.548 46.564L114.614 45.3388H113.666L114.993 47.0819H116.091L117.418 45.3388H116.47L115.548 46.564ZM113.232 52.6218H114.568V53.2077C114.568 53.567 114.667 53.8194 114.866 54.0084L114.874 54.0162C115.064 54.2165 115.317 54.3143 115.649 54.3143C115.978 54.3143 116.22 54.2182 116.412 54.0164L116.416 54.0123C116.609 53.8188 116.718 53.5615 116.718 53.2077C116.718 52.8531 116.609 52.6012 116.437 52.4364C116.297 52.318 116.11 52.2316 115.84 52.1866C115.532 52.1353 115.212 52.0712 114.88 51.9945C114.508 51.9087 114.194 51.7223 113.927 51.4425C113.453 50.9806 113.232 50.4047 113.232 49.7217C113.232 49.0389 113.452 48.4621 113.916 48.0118L113.917 48.0104L114.071 48.1681L113.915 48.0128L113.916 48.0118C114.365 47.5635 114.953 47.3295 115.649 47.3295C116.336 47.3295 116.909 47.5655 117.368 48.0104L117.371 48.0127C117.818 48.4604 118.054 49.0351 118.054 49.7217V50.3076H116.718V49.7217C116.718 49.3839 116.611 49.124 116.414 48.9151L116.416 48.9171L116.571 48.7617L116.412 48.913L116.414 48.9151C116.218 48.7199 115.972 48.6151 115.649 48.6151C115.323 48.6151 115.065 48.7221 114.87 48.9171C114.665 49.1214 114.568 49.3775 114.568 49.7217C114.568 50.1009 114.671 50.3428 114.843 50.4883L114.851 50.4944L114.857 50.501C114.997 50.6407 115.18 50.7365 115.445 50.7807C115.753 50.832 116.073 50.8961 116.406 50.9728C116.778 51.0587 117.088 51.2444 117.362 51.4909L117.373 51.5009C117.818 51.9592 118.054 52.5325 118.054 53.2077C118.054 53.8929 117.819 54.4807 117.371 54.9292L117.368 54.9316C116.907 55.3788 116.333 55.5999 115.649 55.5999C114.956 55.5999 114.367 55.3808 113.916 54.9303L113.917 54.9316L114.071 54.7739L113.915 54.9292L113.916 54.9303C113.451 54.4791 113.232 53.8891 113.232 53.2077V52.6218Z" fill="black"/>
<path fill-rule="evenodd" clip-rule="evenodd" d="M105.333 51.8941H108.276V51.0226H105.333V51.8941ZM105.114 52.1138V50.8029H108.496V52.1138H105.114Z" fill="black"/>
<path fill-rule="evenodd" clip-rule="evenodd" d="M98.6369 47.3015L100.076 45.1192H101.767L99.9957 47.3015H98.6369ZM100.187 55.4736H98.8505V47.4558H100.187V55.4736ZM99.0449 47.0819H99.8912L101.306 45.3388H100.194L99.0449 47.0819ZM99.9669 55.2539V47.6755H99.0702V55.2539H99.9669Z" fill="black"/>
<path fill-rule="evenodd" clip-rule="evenodd" d="M92.3275 49.7216V55.2539H93.2243V49.7216C93.2243 49.3301 93.338 49.0143 93.5779 48.7617C93.8179 48.5217 94.1337 48.3954 94.5126 48.3954C94.8915 48.3954 95.1947 48.5217 95.4346 48.7617C95.6746 49.0143 95.8009 49.3301 95.8009 49.7216V55.2539H96.7103V49.7216C96.7103 49.0901 96.4956 48.5722 96.0914 48.1681C95.6746 47.7639 95.1441 47.5492 94.5126 47.5492C93.8811 47.5492 93.3506 47.7639 92.9464 48.1681C92.5296 48.5722 92.3275 49.0901 92.3275 49.7216ZM92.7923 48.0115C92.3284 48.4618 92.1077 49.0388 92.1077 49.7216V55.4735H93.4438V49.7216C93.4438 49.3782 93.5412 49.1202 93.7351 48.9151C93.9299 48.7214 94.1873 48.6151 94.5125 48.6151C94.8354 48.6151 95.0811 48.7198 95.2772 48.9151C95.4747 49.1239 95.5812 49.3839 95.5812 49.7216V55.4735H96.9299V49.7216C96.9299 49.0351 96.6943 48.4604 96.2467 48.0127L96.2442 48.0104C95.7845 47.5646 95.1984 47.3295 94.5125 47.3295C93.828 47.3295 93.2406 47.5638 92.7923 48.0115Z" fill="black"/>
<path fill-rule="evenodd" clip-rule="evenodd" d="M87.2695 47.3015L85.609 45.1192H87.1082L87.9329 46.2003L88.7465 45.1192H90.2466L88.5861 47.3015H87.2695ZM87.9342 46.564L86.9996 45.3388H86.0523L87.3785 47.0819H88.4773L89.8036 45.3388H88.8563L87.9342 46.564ZM89.6659 48.0104L89.6683 48.0127C90.1159 48.4604 90.3515 49.0351 90.3515 49.7217V52.0633H86.8654V53.2077C86.8654 53.5675 86.9648 53.8224 87.1548 54.0123L87.1588 54.0163C87.3491 54.2167 87.6024 54.3143 87.9341 54.3143C88.2635 54.3143 88.5052 54.2182 88.6969 54.0164L88.7008 54.0123C88.8943 53.8188 89.0028 53.5615 89.0028 53.2077V52.6218H90.3515V53.2077C90.3515 53.8929 90.1168 54.4807 89.6683 54.9292L89.6659 54.9316C89.2038 55.3796 88.6166 55.5999 87.9341 55.5999C87.253 55.5999 86.6644 55.3804 86.2138 54.9304C85.7491 54.4792 85.5294 53.8892 85.5294 53.2077V49.7217C85.5294 49.0388 85.75 48.4618 86.2139 48.0115C86.6622 47.5638 87.2496 47.3295 87.9341 47.3295C88.62 47.3295 89.2061 47.5646 89.6659 48.0104ZM86.368 48.1681C85.9512 48.5723 85.7491 49.0901 85.7491 49.7217V53.2077C85.7491 53.8393 85.9512 54.3697 86.368 54.7739C86.7722 55.1781 87.3027 55.3802 87.9342 55.3802C88.5658 55.3802 89.0963 55.1781 89.5131 54.7739C89.9172 54.3697 90.132 53.8393 90.132 53.2077V52.8414H89.2226V53.2077C89.2226 53.6119 89.0963 53.9277 88.8563 54.1676C88.6163 54.4203 88.3132 54.5339 87.9342 54.5339C87.5553 54.5339 87.2395 54.4203 86.9996 54.1676C86.7596 53.9277 86.6459 53.6119 86.6459 53.2077V51.8436H90.132V49.7217C90.132 49.0901 89.9172 48.5723 89.5131 48.1681C89.0963 47.7639 88.5658 47.5492 87.9342 47.5492C87.3027 47.5492 86.7722 47.7639 86.368 48.1681ZM89.2226 49.7217C89.2226 49.3301 89.0963 49.0143 88.8563 48.7617C88.6163 48.5217 88.3132 48.3954 87.9342 48.3954C87.5553 48.3954 87.2395 48.5217 86.9996 48.7617C86.7596 49.0143 86.6459 49.3301 86.6459 49.7217V51.0858H89.2226V49.7217ZM89.0028 50.8661V49.7217C89.0028 49.3839 88.8964 49.124 88.6988 48.9151C88.5027 48.7199 88.257 48.6151 87.9341 48.6151C87.6089 48.6151 87.3515 48.7214 87.1568 48.9151C86.9629 49.1202 86.8654 49.3782 86.8654 49.7217V50.8661H89.0028Z" fill="black"/>
<path fill-rule="evenodd" clip-rule="evenodd" d="M75.6801 49.7216V55.2539H76.5768V49.7216C76.5768 49.3301 76.6905 49.0143 76.9305 48.7617C77.1705 48.5217 77.4862 48.3954 77.8652 48.3954C78.2441 48.3954 78.5472 48.5217 78.7872 48.7617C79.0272 49.0143 79.1535 49.3301 79.1535 49.7216V55.2539H80.0629V49.7216C80.0629 49.3301 80.1766 49.0143 80.4166 48.7617C80.6565 48.5217 80.9723 48.3954 81.3512 48.3954C81.7301 48.3954 82.0333 48.5217 82.2733 48.7617C82.5132 49.0143 82.6395 49.3301 82.6395 49.7216V55.2539H83.5363V49.7216C83.5363 49.0901 83.3216 48.5722 82.9174 48.1681C82.5006 47.7639 81.9828 47.5492 81.3512 47.5492C80.6579 47.5492 80.1229 47.7769 79.7464 48.2235C79.6976 48.2814 79.6516 48.3429 79.6082 48.4081C79.5637 48.3435 79.5167 48.2826 79.4674 48.2252C79.0821 47.7775 78.5481 47.5492 77.8652 47.5492C77.2336 47.5492 76.7031 47.7639 76.299 48.1681C75.8821 48.5722 75.6801 49.0901 75.6801 49.7216ZM76.1448 48.0115C75.681 48.4618 75.4603 49.0388 75.4603 49.7216V55.4735H76.7964V49.7216C76.7964 49.3782 76.8938 49.1202 77.0877 48.9151C77.2824 48.7214 77.5398 48.6151 77.865 48.6151C78.188 48.6151 78.4336 48.7198 78.6298 48.9151C78.8273 49.1239 78.9337 49.3839 78.9337 49.7216V55.4735H80.2824V49.7216C80.2824 49.3782 80.3798 49.1202 80.5737 48.9151C80.7685 48.7214 81.0259 48.6151 81.3511 48.6151C81.674 48.6151 81.9197 48.7199 82.1158 48.9151C82.3133 49.1239 82.4198 49.3839 82.4198 49.7216V55.4735H83.7559V49.7216C83.7559 49.0351 83.5202 48.4604 83.0726 48.0127L83.0702 48.0104C82.6114 47.5655 82.0383 47.3295 81.3511 47.3295C80.6173 47.3295 80.0271 47.5695 79.6059 48.05C79.1776 47.5707 78.59 47.3295 77.865 47.3295C77.1805 47.3295 76.5932 47.5638 76.1448 48.0115Z" fill="black"/>
<path fill-rule="evenodd" clip-rule="evenodd" d="M69.7205 54.7739C70.1246 55.1781 70.6551 55.3802 71.2867 55.3802C71.9182 55.3802 72.4487 55.1781 72.8655 54.7739C73.2697 54.3697 73.4844 53.8392 73.4844 53.2077V47.6755H72.575V53.2077C72.575 53.6119 72.4487 53.9276 72.2087 54.1676C71.9687 54.4202 71.6656 54.5339 71.2867 54.5339C70.9077 54.5339 70.592 54.4202 70.352 54.1676C70.112 53.9276 69.9983 53.6119 69.9983 53.2077V47.6755H69.1016V53.2077C69.1016 53.8392 69.3036 54.3697 69.7205 54.7739ZM69.5662 54.9304C70.0168 55.3804 70.6054 55.5999 71.2865 55.5999C71.969 55.5999 72.5563 55.3796 73.0183 54.9316L73.0207 54.9293C73.4692 54.4807 73.7039 53.8929 73.7039 53.2077V47.4558H72.3552V53.2077C72.3552 53.5615 72.2468 53.8188 72.0532 54.0123L72.0493 54.0164C71.8576 54.2182 71.6159 54.3143 71.2865 54.3143C70.9548 54.3143 70.7015 54.2167 70.5111 54.0164L70.5072 54.0123C70.3172 53.8224 70.2179 53.5675 70.2179 53.2077V47.4558H68.8818V53.2077C68.8818 53.8892 69.1015 54.4792 69.5662 54.9304Z" fill="black"/>
<path fill-rule="evenodd" clip-rule="evenodd" d="M60.9454 51.8941H63.8884V51.0226H60.9454V51.8941ZM60.7256 52.1138V50.8029H64.1079V52.1138H60.7256Z" fill="black"/>
<path fill-rule="evenodd" clip-rule="evenodd" d="M51.6872 44.9297H53.0233V50.7623L55.3158 47.4558H56.8514L54.0689 51.4155L56.8588 55.4735H55.277L53.0233 52.1755V55.4735H51.6872V44.9297ZM52.8037 51.4647L55.393 55.2539H56.4414L53.8016 51.4141L56.4287 47.6755H55.4309L52.8037 51.4647V45.1493H51.907V55.2539H52.8037V51.4647Z" fill="black"/>
<path fill-rule="evenodd" clip-rule="evenodd" d="M48.4739 55.2539H49.3707V47.6755H48.4739V55.2539ZM48.4992 46.6903C48.6129 46.804 48.7518 46.8545 48.9286 46.8545C49.0928 46.8545 49.2318 46.804 49.3455 46.6903C49.4465 46.5766 49.5097 46.4377 49.5097 46.2608C49.5097 46.0966 49.4465 45.9577 49.3455 45.844C49.2318 45.7304 49.0928 45.6672 48.9286 45.6672C48.7518 45.6672 48.6129 45.7304 48.4992 45.844C48.3855 45.9577 48.335 46.0966 48.335 46.2608C48.335 46.4377 48.3855 46.5766 48.4992 46.6903ZM48.2542 55.4735V47.4558H49.5903V55.4735H48.2542ZM49.5095 45.6981C49.6409 45.8459 49.7292 46.0353 49.7292 46.2608C49.7292 46.4967 49.6427 46.6865 49.5095 46.8362L49.5009 46.8459C49.3408 47.006 49.1432 47.0741 48.9285 47.0741C48.7038 47.0741 48.5054 47.0073 48.3438 46.8456C48.1821 46.684 48.1152 46.4856 48.1152 46.2608C48.1152 46.0462 48.1837 45.8488 48.3438 45.6887C48.4971 45.5354 48.6913 45.4475 48.9285 45.4475C49.1556 45.4475 49.3492 45.5372 49.5007 45.6887L49.5095 45.6981Z" fill="black"/>
<path fill-rule="evenodd" clip-rule="evenodd" d="M45.7419 55.2539H46.4619V54.4076H45.7419C45.363 54.4076 45.0472 54.2939 44.8073 54.0413C44.5673 53.8013 44.4536 53.4856 44.4536 53.0814V48.5217H46.4619V47.6755H44.4536V46.4124H43.5568V53.0814C43.5568 53.7129 43.7589 54.2434 44.1757 54.6476C44.5799 55.0518 45.1104 55.2539 45.7419 55.2539ZM44.6731 47.4558H46.6814V48.7414H44.6731V53.0814C44.6731 53.4411 44.7725 53.6961 44.9625 53.886L44.9664 53.89C45.1568 54.0903 45.4101 54.1879 45.7418 54.1879H46.6814V55.4735H45.7418C45.0607 55.4735 44.4721 55.2541 44.0215 54.8042C43.5568 54.3529 43.337 53.7629 43.337 53.0814V46.1927H44.6731V47.4558Z" fill="black"/>
<path fill-rule="evenodd" clip-rule="evenodd" d="M36.9783 49.7216V55.2539H37.8751V49.7216C37.8751 49.3301 37.9888 49.0143 38.2287 48.7617C38.4687 48.5217 38.7845 48.3954 39.1634 48.3954C39.5423 48.3954 39.8455 48.5217 40.0855 48.7617C40.3254 49.0143 40.4517 49.3301 40.4517 49.7216V55.2539H41.3611V49.7216C41.3611 49.0901 41.1464 48.5722 40.7422 48.1681C40.3254 47.7639 39.7949 47.5492 39.1634 47.5492C38.5319 47.5492 38.0014 47.7639 37.5972 48.1681C37.1804 48.5722 36.9783 49.0901 36.9783 49.7216ZM37.4429 48.0116C36.9792 48.4619 36.7585 49.0388 36.7585 49.7216V55.4735H38.0946V49.7216C38.0946 49.3782 38.192 49.1202 38.3859 48.9151C38.5807 48.7214 38.8381 48.6151 39.1633 48.6151C39.4862 48.6151 39.7319 48.7198 39.928 48.9151C40.1255 49.1239 40.232 49.3839 40.232 49.7216V55.4735H41.5807V49.7216C41.5807 49.0351 41.3451 48.4604 40.8975 48.0127L40.895 48.0104C40.4353 47.5646 39.8492 47.3295 39.1633 47.3295C38.4787 47.3295 37.8913 47.5638 37.4429 48.0116Z" fill="black"/>
<path fill-rule="evenodd" clip-rule="evenodd" d="M31.0188 54.7739C31.423 55.1781 31.9535 55.3802 32.585 55.3802C33.2166 55.3802 33.7471 55.1781 34.1639 54.7739C34.5681 54.3697 34.7828 53.8392 34.7828 53.2077V49.7216C34.7828 49.0901 34.5681 48.5722 34.1639 48.1681C33.7471 47.7639 33.2166 47.5492 32.585 47.5492C31.9535 47.5492 31.423 47.7639 31.0188 48.1681C30.602 48.5722 30.3999 49.0901 30.3999 49.7216V50.1385H31.2967V49.7216C31.2967 49.3301 31.4104 49.0143 31.6504 48.7617C31.8904 48.5217 32.2061 48.3954 32.585 48.3954C32.964 48.3954 33.2671 48.5217 33.5071 48.7617C33.7471 49.0143 33.8734 49.3301 33.8734 49.7216V51.6541C33.8055 51.5811 33.7322 51.515 33.6536 51.4562C33.3516 51.2303 32.9703 51.111 32.5093 51.111C31.8904 51.111 31.3851 51.3131 30.9936 51.692C30.5894 52.0836 30.3999 52.5888 30.3999 53.2077C30.3999 53.8392 30.602 54.3697 31.0188 54.7739ZM30.8646 54.9304C31.3152 55.3804 31.9038 55.5998 32.5849 55.5998C33.2674 55.5998 33.8547 55.3796 34.3167 54.9316L34.3191 54.9292C34.7676 54.4807 35.0023 53.8929 35.0023 53.2077V49.7216C35.0023 49.0351 34.7667 48.4604 34.3191 48.0127L34.3167 48.0104C33.8569 47.5646 33.2708 47.3295 32.5849 47.3295C31.9003 47.3295 31.3129 47.5638 30.8646 48.0116C30.4008 48.4619 30.1802 49.0388 30.1802 49.7216V50.3581H31.5163V49.7216C31.5163 49.3782 31.6137 49.1202 31.8076 48.9151C32.0023 48.7214 32.2597 48.6151 32.5849 48.6151C32.9078 48.6151 33.1535 48.7198 33.3496 48.9151C33.5472 49.1239 33.6536 49.3839 33.6536 49.7216V51.1905C33.334 50.9924 32.9498 50.8914 32.5091 50.8914C31.838 50.8914 31.2765 51.1124 30.8407 51.5342C30.387 51.9737 30.1802 52.5395 30.1802 53.2077C30.1802 53.8892 30.3999 54.4792 30.8646 54.9304ZM33.5071 54.1676C33.2671 54.4202 32.964 54.5339 32.585 54.5339C32.2061 54.5339 31.8904 54.4202 31.6504 54.1676C31.4104 53.9276 31.2967 53.6119 31.2967 53.2077C31.2967 52.8288 31.4104 52.513 31.6504 52.2604C31.8904 52.0204 32.2061 51.8941 32.585 51.8941C32.964 51.8941 33.2671 52.0204 33.5071 52.2604C33.7471 52.513 33.8734 52.8288 33.8734 53.2077C33.8734 53.6119 33.7471 53.9276 33.5071 54.1676ZM33.3497 52.4138C33.5479 52.6234 33.6536 52.8836 33.6536 53.2077C33.6536 53.5615 33.5452 53.8188 33.3516 54.0123L33.3477 54.0163C33.156 54.2182 32.9143 54.3143 32.5849 54.3143C32.2532 54.3143 31.9998 54.2167 31.8095 54.0163L31.8056 54.0123C31.6156 53.8224 31.5163 53.5675 31.5163 53.2077C31.5163 52.8779 31.613 52.6196 31.8076 52.4137C32.0023 52.22 32.2597 52.1138 32.5849 52.1138C32.9078 52.1138 33.1535 52.2185 33.3497 52.4138Z" fill="black"/>
<path fill-rule="evenodd" clip-rule="evenodd" d="M19.6263 52.6392H2.94922V51.4479H19.6263V52.6392Z" fill="black"/>
<path fill-rule="evenodd" clip-rule="evenodd" d="M175.676 51.4479H158.999V50.2567H175.676V51.4479Z" fill="black"/>
</svg>
